<svg width="150" height="150" viewBox="0 0 150 150" fill="none" xmlns="http://www.w3.org/2000/svg">
<circle cx="75" cy="75" r="75" fill="#FFF4E7"/>
<path d="M16.2 70C16.0667 69.7333 16 69.55 16 69.45C16 69.2833 16.0667 69.1 16.2 68.9L34.2 60.1C34.3 60.0333 34.4667 60 34.7 60C35.0333 60 35.3167 60.15 35.55 60.45C35.7833 60.75 35.9 61.1833 35.9 61.75C35.9 62.0833 35.85 62.4833 35.75 62.95L20.8 69.45L35.75 75.95C35.8833 76.35 35.95 76.7667 35.95 77.2C35.95 77.7333 35.8333 78.1667 35.6 78.5C35.4 78.8 35.1333 78.95 34.8 78.95C34.6 78.95 34.4 78.9 34.2 78.8L16.2 70Z" fill="#EB3280"/>
<path d="M124.45 79.8C124.25 79.9 124.05 79.95 123.85 79.95C123.483 79.95 123.2 79.8 123 79.5C122.8 79.2 122.7 78.7833 122.7 78.25C122.7 77.7833 122.767 77.35 122.9 76.95L137.85 70.45L122.9 63.95C122.8 63.4833 122.75 63.0833 122.75 62.75C122.75 62.1833 122.867 61.75 123.1 61.45C123.333 61.15 123.617 61 123.95 61C124.183 61 124.35 61.0333 124.45 61.1L142.45 69.9C142.583 70.0333 142.65 70.2167 142.65 70.45C142.65 70.65 142.583 70.8333 142.45 71L124.45 79.8Z" fill="#EB3280"/>
<path d="M107.15 85.26L116.87 59.07H119.3L109.55 85.26H107.15Z" fill="#EB3280"/>
<path d="M111.34 108.78C112.553 112.513 113.953 115.267 115.54 117.04C113.393 119.56 110.127 120.82 105.74 120.82C103.033 120.82 100.747 120.26 98.88 119.14C97.1067 118.02 95.9867 116.387 95.52 114.24L88.8 89.88H56.04L50.86 109.06C50.2067 111.3 49.88 113.26 49.88 114.94C49.88 116.807 50.3467 118.16 51.28 119C48.2 120.213 45.12 120.82 42.04 120.82C38.7733 120.82 36.3933 120.26 34.9 119.14C33.4067 118.02 32.66 116.2 32.66 113.68C32.66 111.813 33.22 108.873 34.34 104.86L62.34 21.84C67.38 20.2533 72.0933 19.46 76.48 19.46C81.52 19.46 84.6 21.3267 85.72 25.06L111.34 108.78ZM86.14 80.64L72.14 29.68L58.42 80.64H86.14Z" fill="#500988"/>
</svg>
