<svg width="150" height="150" viewBox="0 0 150 150" fill="none" xmlns="http://www.w3.org/2000/svg">
<path d="M150 75C150 116.421 116.421 150 75 150C33.5786 150 0 116.421 0 75C0 33.5786 33.5786 0 75 0C116.421 0 150 33.5786 150 75Z" fill="#FFF4E7"/>
<path d="M9.32 61.8C9.24 61.64 9.2 61.53 9.2 61.47C9.2 61.37 9.24 61.26 9.32 61.14L20.12 55.86C20.18 55.82 20.28 55.8 20.42 55.8C20.62 55.8 20.79 55.89 20.93 56.07C21.07 56.25 21.14 56.51 21.14 56.85C21.14 57.05 21.11 57.29 21.05 57.57L12.08 61.47L21.05 65.37C21.13 65.61 21.17 65.86 21.17 66.12C21.17 66.44 21.1 66.7 20.96 66.9C20.84 67.08 20.68 67.17 20.48 67.17C20.36 67.17 20.24 67.14 20.12 67.08L9.32 61.8Z" fill="#EB3280"/>
<path d="M97.09 103.26L106.84 77.04H110.14L100.39 103.26H97.09Z" fill="#EB3280"/>
<path d="M113.908 94.08C113.788 94.14 113.668 94.17 113.548 94.17C113.328 94.17 113.158 94.08 113.038 93.9C112.918 93.72 112.858 93.47 112.858 93.15C112.858 92.87 112.898 92.61 112.978 92.37L121.948 88.47L112.978 84.57C112.918 84.29 112.888 84.05 112.888 83.85C112.888 83.51 112.958 83.25 113.098 83.07C113.238 82.89 113.408 82.8 113.608 82.8C113.748 82.8 113.848 82.82 113.908 82.86L124.708 88.14C124.788 88.22 124.828 88.33 124.828 88.47C124.828 88.59 124.788 88.7 124.708 88.8L113.908 94.08Z" fill="#EB3280"/>
<path d="M42.28 69.93C42.52 70.67 42.81 71.23 43.15 71.61C42.69 72.11 42.04 72.36 41.2 72.36C40.66 72.36 40.21 72.25 39.85 72.03C39.49 71.81 39.26 71.49 39.16 71.07L37.63 65.67H30.4L29.2 69.99C29.08 70.51 29.02 70.91 29.02 71.19C29.02 71.55 29.1 71.83 29.26 72.03C28.68 72.25 28.08 72.36 27.46 72.36C26.82 72.36 26.35 72.25 26.05 72.03C25.75 71.83 25.6 71.49 25.6 71.01C25.6 70.51 25.72 69.9 25.96 69.18L32.02 51.21C32.92 50.87 33.85 50.7 34.81 50.7C35.85 50.7 36.47 51.08 36.67 51.84L42.28 69.93ZM37.09 63.81L33.94 52.77L30.91 63.81H37.09Z" fill="#500988"/>
<path d="M57.2599 56.22C58.3599 56.22 59.2499 56.51 59.9299 57.09C60.6099 57.67 60.9499 58.47 60.9499 59.49C60.9499 60.25 60.7299 60.86 60.2899 61.32C59.8499 61.78 59.2999 62.01 58.6399 62.01C58.0199 62.01 57.5699 61.85 57.2899 61.53C57.5098 61.17 57.6599 60.85 57.7399 60.57C57.8199 60.27 57.8599 59.93 57.8599 59.55C57.8599 58.41 57.3599 57.84 56.3598 57.84C55.5599 57.84 54.9098 58.43 54.4098 59.61C53.9298 60.77 53.6898 62.52 53.6898 64.86V66C53.6898 67.78 53.7198 69.01 53.7799 69.69C53.8398 70.35 53.9899 70.98 54.2299 71.58C54.0299 71.76 53.7699 71.92 53.4499 72.06C53.1299 72.2 52.7598 72.28 52.3398 72.3C51.7998 72.3 51.3399 72.13 50.9599 71.79C50.5999 71.45 50.4198 70.99 50.4198 70.41V60.27C50.4198 59.73 50.3499 59.34 50.2099 59.1C50.0899 58.84 49.8898 58.71 49.6098 58.71C49.2298 58.71 48.9698 58.85 48.8298 59.13C48.5698 58.75 48.4398 58.37 48.4398 57.99C48.4398 57.47 48.6298 57.05 49.0098 56.73C49.3898 56.39 49.9198 56.22 50.5998 56.22C51.4198 56.22 52.0699 56.5 52.5499 57.06C53.0299 57.62 53.2799 58.45 53.2999 59.55C53.9999 57.33 55.3199 56.22 57.2599 56.22Z" fill="#500988"/>
<path d="M70.0108 54.36C69.4508 54.36 68.9708 54.17 68.5708 53.79C68.1908 53.41 68.0008 52.95 68.0008 52.41C68.0008 51.85 68.1908 51.38 68.5708 51C68.9708 50.6 69.4508 50.4 70.0108 50.4C70.5508 50.4 71.0108 50.6 71.3908 51C71.7908 51.38 71.9908 51.85 71.9908 52.41C71.9908 52.95 71.7908 53.41 71.3908 53.79C71.0108 54.17 70.5508 54.36 70.0108 54.36ZM71.7808 68.07C71.7808 69.63 71.9408 70.82 72.2608 71.64C71.7008 72.14 71.0708 72.39 70.3708 72.39C69.8308 72.39 69.3908 72.24 69.0508 71.94C68.7108 71.62 68.5408 71.19 68.5408 70.65L68.5108 60.51C68.5108 59.05 68.3508 57.85 68.0308 56.91C68.6308 56.43 69.2408 56.19 69.8608 56.19C70.4008 56.19 70.8408 56.35 71.1808 56.67C71.5408 56.97 71.7208 57.39 71.7208 57.93L71.7808 68.07Z" fill="#500988"/>
<path d="M94.7188 69.33C94.9588 69.65 95.0788 70.02 95.0788 70.44C95.0788 70.96 94.8488 71.4 94.3888 71.76C93.9288 72.12 93.3388 72.3 92.6188 72.3C91.6388 72.3 90.8988 71.97 90.3988 71.31C89.8988 70.63 89.6388 69.54 89.6188 68.04C89.0188 69.34 88.1988 70.38 87.1588 71.16C86.1188 71.94 84.9288 72.33 83.5888 72.33C82.4288 72.33 81.4888 72.02 80.7688 71.4C80.0688 70.76 79.7188 69.9 79.7188 68.82C79.7188 67.56 80.1988 66.52 81.1588 65.7C82.1188 64.88 83.3488 64.26 84.8488 63.84C86.3488 63.42 87.8788 63.23 89.4388 63.27V62.52C89.4388 60.78 89.1988 59.5 88.7188 58.68C88.2388 57.86 87.4388 57.45 86.3188 57.45C85.5588 57.45 84.9388 57.63 84.4588 57.99C83.9988 58.35 83.7688 58.94 83.7688 59.76C83.7688 60.22 83.8588 60.65 84.0388 61.05C84.2188 61.45 84.5188 61.75 84.9388 61.95C84.7388 62.17 84.4688 62.34 84.1288 62.46C83.8088 62.56 83.4688 62.61 83.1088 62.61C82.3088 62.61 81.6588 62.35 81.1588 61.83C80.6788 61.29 80.4388 60.64 80.4388 59.88C80.4388 58.7 80.9788 57.8 82.0588 57.18C83.1388 56.54 84.6288 56.22 86.5288 56.22C88.6888 56.22 90.2688 56.74 91.2688 57.78C92.2888 58.8 92.7988 60.44 92.7988 62.7V68.22C92.7988 69.28 93.1388 69.81 93.8188 69.81C93.9788 69.81 94.1388 69.77 94.2988 69.69C94.4788 69.61 94.6188 69.49 94.7188 69.33ZM85.0888 70.14C85.7488 70.14 86.4188 69.88 87.0988 69.36C87.7988 68.82 88.3788 68.11 88.8388 67.23C89.2988 66.35 89.5288 65.41 89.5288 64.41C88.8288 64.37 88.1188 64.41 87.3988 64.53C86.6788 64.63 86.0588 64.8 85.5388 65.04C84.8388 65.34 84.2888 65.75 83.8888 66.27C83.5088 66.77 83.3188 67.36 83.3188 68.04C83.3188 68.64 83.4588 69.14 83.7388 69.54C84.0388 69.94 84.4888 70.14 85.0888 70.14Z" fill="#500988"/>
<path d="M115.167 68.07C115.207 69.71 115.387 70.9 115.707 71.64C115.167 72.14 114.537 72.39 113.817 72.39C113.257 72.39 112.797 72.24 112.437 71.94C112.077 71.62 111.897 71.19 111.897 70.65V62.82C111.877 61.16 111.677 59.94 111.297 59.16C110.937 58.36 110.267 57.96 109.287 57.96C108.627 57.96 108.017 58.21 107.457 58.71C106.917 59.21 106.477 59.98 106.137 61.02C105.797 62.04 105.627 63.32 105.627 64.86C105.627 67.22 105.657 68.78 105.717 69.54C105.777 70.3 105.937 71.01 106.197 71.67C105.997 71.85 105.727 72.01 105.387 72.15C105.067 72.31 104.717 72.39 104.337 72.39C103.757 72.39 103.287 72.22 102.927 71.88C102.567 71.54 102.387 71.08 102.387 70.5V60.27C102.367 59.71 102.297 59.31 102.177 59.07C102.057 58.83 101.857 58.71 101.577 58.71C101.197 58.71 100.937 58.85 100.797 59.13C100.537 58.75 100.407 58.37 100.407 57.99C100.407 57.47 100.597 57.05 100.977 56.73C101.357 56.39 101.887 56.22 102.567 56.22C103.427 56.22 104.087 56.52 104.547 57.12C105.027 57.7 105.267 58.57 105.267 59.73V59.88C105.667 58.7 106.297 57.8 107.157 57.18C108.037 56.54 109.097 56.22 110.337 56.22C111.977 56.22 113.187 56.73 113.967 57.75C114.767 58.77 115.167 60.3 115.167 62.34V68.07Z" fill="#500988"/>
<path d="M135.508 67.86C135.828 68 135.988 68.25 135.988 68.61C135.988 68.85 135.918 69.14 135.778 69.48C135.398 70.42 134.718 71.14 133.738 71.64C132.778 72.14 131.618 72.39 130.258 72.39C127.978 72.39 126.178 71.69 124.858 70.29C123.558 68.89 122.908 66.9 122.908 64.32C122.908 61.78 123.548 59.8 124.828 58.38C126.108 56.94 127.938 56.22 130.318 56.22C132.058 56.22 133.468 56.61 134.548 57.39C135.628 58.15 136.168 59.24 136.168 60.66C136.168 62.14 135.568 63.28 134.368 64.08C133.188 64.86 131.578 65.25 129.538 65.25C128.378 65.25 127.348 65.2 126.448 65.1C126.588 66.96 127.058 68.29 127.858 69.09C128.658 69.89 129.748 70.29 131.128 70.29C132.208 70.29 133.128 70.07 133.888 69.63C134.668 69.19 135.208 68.6 135.508 67.86ZM130.198 57.45C129.018 57.45 128.088 58.01 127.408 59.13C126.748 60.23 126.418 61.8 126.418 63.84C126.938 63.9 127.468 63.93 128.008 63.93C129.368 63.93 130.478 63.66 131.338 63.12C132.198 62.58 132.628 61.59 132.628 60.15C132.628 59.17 132.398 58.48 131.938 58.08C131.478 57.66 130.898 57.45 130.198 57.45Z" fill="#500988"/>
<path d="M27.34 92.39C25.1 92.39 23.36 91.71 22.12 90.35C20.88 88.97 20.26 86.99 20.26 84.41C20.26 81.89 20.89 79.91 22.15 78.47C23.43 77.03 25.23 76.31 27.55 76.31C29.19 76.31 30.46 76.67 31.36 77.39C32.28 78.09 32.74 79 32.74 80.12C32.74 80.84 32.54 81.42 32.14 81.86C31.74 82.3 31.22 82.52 30.58 82.52C29.9 82.52 29.39 82.31 29.05 81.89C29.69 81.59 30.01 80.93 30.01 79.91C30.01 79.07 29.76 78.45 29.26 78.05C28.76 77.65 28.1 77.45 27.28 77.45C26.04 77.45 25.04 78.02 24.28 79.16C23.54 80.28 23.17 81.89 23.17 83.99C23.17 86.27 23.61 87.94 24.49 89C25.39 90.06 26.59 90.59 28.09 90.59C29.19 90.59 30.13 90.32 30.91 89.78C31.69 89.24 32.2 88.48 32.44 87.5C32.74 87.64 32.89 87.92 32.89 88.34C32.89 88.56 32.85 88.82 32.77 89.12C32.45 90.16 31.81 90.97 30.85 91.55C29.89 92.11 28.72 92.39 27.34 92.39Z" fill="#500988"/>
<path d="M42.4551 92.39C40.2551 92.39 38.5351 91.69 37.2951 90.29C36.0751 88.87 35.4651 86.9 35.4651 84.38C35.4651 81.84 36.0751 79.86 37.2951 78.44C38.5351 77.02 40.2551 76.31 42.4551 76.31C44.6551 76.31 46.3651 77.02 47.5851 78.44C48.8051 79.86 49.4151 81.84 49.4151 84.38C49.4151 86.9 48.8051 88.87 47.5851 90.29C46.3651 91.69 44.6551 92.39 42.4551 92.39ZM42.4551 91.25C43.7751 91.25 44.7751 90.66 45.4551 89.48C46.1551 88.3 46.5051 86.6 46.5051 84.38C46.5051 82.12 46.1551 80.4 45.4551 79.22C44.7751 78.04 43.7751 77.45 42.4551 77.45C41.1151 77.45 40.0951 78.04 39.3951 79.22C38.7151 80.4 38.3751 82.12 38.3751 84.38C38.3751 86.6 38.7151 88.3 39.3951 89.48C40.0951 90.66 41.1151 91.25 42.4551 91.25Z" fill="#500988"/>
<path d="M66.7492 89.72C66.9692 90.04 67.0792 90.38 67.0792 90.74C67.0792 91.18 66.8892 91.54 66.5092 91.82C66.1292 92.1 65.6492 92.24 65.0692 92.24C63.3692 92.24 62.4892 90.93 62.4292 88.31C61.9692 89.61 61.2892 90.62 60.3892 91.34C59.5092 92.04 58.4292 92.39 57.1492 92.39C55.2692 92.39 53.9292 91.69 53.1292 90.29C52.3492 88.87 51.9592 87.12 51.9592 85.04C51.9592 82.28 52.5092 80.14 53.6092 78.62C54.7092 77.08 56.2692 76.31 58.2892 76.31C59.2892 76.31 60.1292 76.51 60.8092 76.91C61.5092 77.31 62.0092 77.87 62.3092 78.59V75.11C62.3092 73.25 62.1592 71.78 61.8592 70.7C62.2792 70.28 62.7992 70.07 63.4192 70.07C63.8792 70.07 64.2592 70.21 64.5592 70.49C64.8592 70.75 65.0092 71.11 65.0092 71.57L64.9792 88.61C64.9792 89.65 65.2992 90.17 65.9392 90.17C66.3192 90.17 66.5892 90.02 66.7492 89.72ZM57.8992 90.77C58.7992 90.77 59.5792 90.41 60.2392 89.69C60.9192 88.97 61.4292 88 61.7692 86.78C62.1092 85.56 62.2792 84.23 62.2792 82.79C62.2792 79.49 61.1192 77.84 58.7992 77.84C57.5192 77.84 56.5392 78.45 55.8592 79.67C55.1992 80.87 54.8692 82.63 54.8692 84.95C54.8692 86.75 55.0792 88.17 55.4992 89.21C55.9192 90.25 56.7192 90.77 57.8992 90.77Z" fill="#500988"/>
<path d="M81.3979 88.04C81.6979 88.16 81.8479 88.39 81.8479 88.73C81.8479 88.95 81.7779 89.23 81.6379 89.57C81.2779 90.49 80.6179 91.19 79.6579 91.67C78.6979 92.15 77.5579 92.39 76.2379 92.39C74.0179 92.39 72.2679 91.7 70.9879 90.32C69.7279 88.94 69.0979 86.97 69.0979 84.41C69.0979 81.89 69.7279 79.91 70.9879 78.47C72.2479 77.03 74.0379 76.31 76.3579 76.31C78.0379 76.31 79.3879 76.69 80.4079 77.45C81.4479 78.21 81.9679 79.29 81.9679 80.69C81.9679 82.17 81.3679 83.3 80.1679 84.08C78.9679 84.86 77.3179 85.25 75.2179 85.25C74.1579 85.25 73.0979 85.19 72.0379 85.07C72.2779 88.75 73.9079 90.59 76.9279 90.59C78.0079 90.59 78.9379 90.37 79.7179 89.93C80.5179 89.47 81.0779 88.84 81.3979 88.04ZM76.2379 77.45C74.9379 77.45 73.9079 78.01 73.1479 79.13C72.4079 80.25 72.0279 81.86 72.0079 83.96C72.4279 84 73.0979 84.04 74.0179 84.08C75.5379 84.08 76.7579 83.81 77.6779 83.27C78.5979 82.71 79.0579 81.72 79.0579 80.3C79.0579 79.26 78.7879 78.53 78.2479 78.11C77.7079 77.67 77.0379 77.45 76.2379 77.45Z" fill="#500988"/>
<path d="M89.968 92.39C88.088 92.39 86.678 92.06 85.738 91.4C84.798 90.74 84.328 89.87 84.328 88.79C84.328 88.27 84.458 87.84 84.718 87.5C84.998 87.16 85.428 86.99 86.008 86.99C86.108 86.99 86.278 87.01 86.518 87.05C86.458 87.31 86.428 87.56 86.428 87.8C86.428 88.04 86.438 88.23 86.458 88.37C86.518 89.23 86.878 89.92 87.538 90.44C88.198 90.94 89.098 91.19 90.238 91.19C91.298 91.19 92.148 91 92.788 90.62C93.448 90.22 93.778 89.66 93.778 88.94C93.778 88.44 93.638 88.02 93.358 87.68C93.098 87.32 92.758 87.02 92.338 86.78C91.938 86.54 91.368 86.25 90.628 85.91L89.698 85.49C88.598 84.97 87.748 84.53 87.148 84.17C86.548 83.79 86.028 83.28 85.588 82.64C85.148 82 84.928 81.21 84.928 80.27C84.928 78.93 85.438 77.93 86.458 77.27C87.498 76.61 88.818 76.28 90.418 76.28C92.078 76.28 93.378 76.54 94.318 77.06C95.258 77.58 95.728 78.32 95.728 79.28C95.728 79.68 95.618 80.02 95.398 80.3C95.198 80.56 94.878 80.71 94.438 80.75C94.338 80.77 94.198 80.78 94.018 80.78C93.818 80.78 93.658 80.76 93.538 80.72C93.558 80.62 93.568 80.44 93.568 80.18C93.568 79.86 93.528 79.59 93.448 79.37C93.368 78.75 93.048 78.28 92.488 77.96C91.948 77.62 91.228 77.45 90.328 77.45C89.488 77.45 88.788 77.61 88.228 77.93C87.688 78.25 87.418 78.75 87.418 79.43C87.418 80.01 87.578 80.51 87.898 80.93C88.238 81.35 88.638 81.7 89.098 81.98C89.558 82.24 90.268 82.6 91.228 83.06L91.798 83.33C92.798 83.81 93.588 84.23 94.168 84.59C94.768 84.95 95.278 85.41 95.698 85.97C96.118 86.53 96.328 87.21 96.328 88.01C96.328 89.21 95.818 90.24 94.798 91.1C93.798 91.96 92.188 92.39 89.968 92.39Z" fill="#500988"/>
</svg>
