<svg id="visual" viewBox="0 0 1440 300" width="1440" height="300" xmlns="http://www.w3.org/2000/svg" xmlns:xlink="http://www.w3.org/1999/xlink" version="1.1"><path d="M0 118L21.8 133.2C43.7 148.3 87.3 178.7 131 191.2C174.7 203.7 218.3 198.3 262 195.8C305.7 193.3 349.3 193.7 393 184.2C436.7 174.7 480.3 155.3 524 152.5C567.7 149.7 611.3 163.3 654.8 154C698.3 144.7 741.7 112.3 785.2 96.5C828.7 80.7 872.3 81.3 916 68.8C959.7 56.3 1003.3 30.7 1047 21.2C1090.7 11.7 1134.3 18.3 1178 31.2C1221.7 44 1265.3 63 1309 83.5C1352.7 104 1396.3 126 1418.2 137L1440 148L1440 301L1418.2 301C1396.3 301 1352.7 301 1309 301C1265.3 301 1221.7 301 1178 301C1134.3 301 1090.7 301 1047 301C1003.3 301 959.7 301 916 301C872.3 301 828.7 301 785.2 301C741.7 301 698.3 301 654.8 301C611.3 301 567.7 301 524 301C480.3 301 436.7 301 393 301C349.3 301 305.7 301 262 301C218.3 301 174.7 301 131 301C87.3 301 43.7 301 21.8 301L0 301Z" fill="#fff4e7"></path><path d="M0 62L21.8 65.7C43.7 69.3 87.3 76.7 131 75.2C174.7 73.7 218.3 63.3 262 67.3C305.7 71.3 349.3 89.7 393 116.5C436.7 143.3 480.3 178.7 524 177.8C567.7 177 611.3 140 654.8 116.8C698.3 93.7 741.7 84.3 785.2 99.8C828.7 115.3 872.3 155.7 916 172.2C959.7 188.7 1003.3 181.3 1047 158.2C1090.7 135 1134.3 96 1178 96.3C1221.7 96.7 1265.3 136.3 1309 153.2C1352.7 170 1396.3 164 1418.2 161L1440 158L1440 301L1418.2 301C1396.3 301 1352.7 301 1309 301C1265.3 301 1221.7 301 1178 301C1134.3 301 1090.7 301 1047 301C1003.3 301 959.7 301 916 301C872.3 301 828.7 301 785.2 301C741.7 301 698.3 301 654.8 301C611.3 301 567.7 301 524 301C480.3 301 436.7 301 393 301C349.3 301 305.7 301 262 301C218.3 301 174.7 301 131 301C87.3 301 43.7 301 21.8 301L0 301Z" fill="#d8c2b7"></path><path d="M0 138L21.8 138C43.7 138 87.3 138 131 140C174.7 142 218.3 146 262 162.8C305.7 179.7 349.3 209.3 393 207.3C436.7 205.3 480.3 171.7 524 161.5C567.7 151.3 611.3 164.7 654.8 167C698.3 169.3 741.7 160.7 785.2 158.3C828.7 156 872.3 160 916 163.2C959.7 166.3 1003.3 168.7 1047 181.7C1090.7 194.7 1134.3 218.3 1178 210.8C1221.7 203.3 1265.3 164.7 1309 151.5C1352.7 138.3 1396.3 150.7 1418.2 156.8L1440 163L1440 301L1418.2 301C1396.3 301 1352.7 301 1309 301C1265.3 301 1221.7 301 1178 301C1134.3 301 1090.7 301 1047 301C1003.3 301 959.7 301 916 301C872.3 301 828.7 301 785.2 301C741.7 301 698.3 301 654.8 301C611.3 301 567.7 301 524 301C480.3 301 436.7 301 393 301C349.3 301 305.7 301 262 301C218.3 301 174.7 301 131 301C87.3 301 43.7 301 21.8 301L0 301Z" fill="#b0928f"></path><path d="M0 238L21.8 225.5C43.7 213 87.3 188 131 170.5C174.7 153 218.3 143 262 142.7C305.7 142.3 349.3 151.7 393 165C436.7 178.3 480.3 195.7 524 199.7C567.7 203.7 611.3 194.3 654.8 180.5C698.3 166.7 741.7 148.3 785.2 152C828.7 155.7 872.3 181.3 916 200.3C959.7 219.3 1003.3 231.7 1047 229.5C1090.7 227.3 1134.3 210.7 1178 204.3C1221.7 198 1265.3 202 1309 208.2C1352.7 214.3 1396.3 222.7 1418.2 226.8L1440 231L1440 301L1418.2 301C1396.3 301 1352.7 301 1309 301C1265.3 301 1221.7 301 1178 301C1134.3 301 1090.7 301 1047 301C1003.3 301 959.7 301 916 301C872.3 301 828.7 301 785.2 301C741.7 301 698.3 301 654.8 301C611.3 301 567.7 301 524 301C480.3 301 436.7 301 393 301C349.3 301 305.7 301 262 301C218.3 301 174.7 301 131 301C87.3 301 43.7 301 21.8 301L0 301Z" fill="#87656d"></path><path d="M0 239L21.8 241C43.7 243 87.3 247 131 243.7C174.7 240.3 218.3 229.7 262 217C305.7 204.3 349.3 189.7 393 197.2C436.7 204.7 480.3 234.3 524 251.3C567.7 268.3 611.3 272.7 654.8 274.5C698.3 276.3 741.7 275.7 785.2 263.3C828.7 251 872.3 227 916 219C959.7 211 1003.3 219 1047 224C1090.7 229 1134.3 231 1178 239.8C1221.7 248.7 1265.3 264.3 1309 254.7C1352.7 245 1396.3 210 1418.2 192.5L1440 175L1440 301L1418.2 301C1396.3 301 1352.7 301 1309 301C1265.3 301 1221.7 301 1178 301C1134.3 301 1090.7 301 1047 301C1003.3 301 959.7 301 916 301C872.3 301 828.7 301 785.2 301C741.7 301 698.3 301 654.8 301C611.3 301 567.7 301 524 301C480.3 301 436.7 301 393 301C349.3 301 305.7 301 262 301C218.3 301 174.7 301 131 301C87.3 301 43.7 301 21.8 301L0 301Z" fill="#5a3d50"></path><path d="M0 250L21.8 255.5C43.7 261 87.3 272 131 274.5C174.7 277 218.3 271 262 266.7C305.7 262.3 349.3 259.7 393 253C436.7 246.3 480.3 235.7 524 233.7C567.7 231.7 611.3 238.3 654.8 247.2C698.3 256 741.7 267 785.2 265.7C828.7 264.3 872.3 250.7 916 243.8C959.7 237 1003.3 237 1047 235.8C1090.7 234.7 1134.3 232.3 1178 232.5C1221.7 232.7 1265.3 235.3 1309 245.7C1352.7 256 1396.3 274 1418.2 283L1440 292L1440 301L1418.2 301C1396.3 301 1352.7 301 1309 301C1265.3 301 1221.7 301 1178 301C1134.3 301 1090.7 301 1047 301C1003.3 301 959.7 301 916 301C872.3 301 828.7 301 785.2 301C741.7 301 698.3 301 654.8 301C611.3 301 567.7 301 524 301C480.3 301 436.7 301 393 301C349.3 301 305.7 301 262 301C218.3 301 174.7 301 131 301C87.3 301 43.7 301 21.8 301L0 301Z" fill="#2a1b35"></path></svg>