<svg id="visual" viewBox="0 0 450 300" style="display: block;" xmlns="http://www.w3.org/2000/svg" xmlns:xlink="http://www.w3.org/1999/xlink" version="1.1"><rect x="0" y="0" width="450" height="300" fill="#FFF4E7"></rect><path d="M0 216L12.5 190.8C25 165.7 50 115.3 75 111C100 106.7 125 148.3 150 173.8C175 199.3 200 208.7 225 189.3C250 170 275 122 300 93.7C325 65.3 350 56.7 375 73C400 89.3 425 130.7 437.5 151.3L450 172L450 301L437.5 301C425 301 400 301 375 301C350 301 325 301 300 301C275 301 250 301 225 301C200 301 175 301 150 301C125 301 100 301 75 301C50 301 25 301 12.5 301L0 301Z" fill="#fff4e7"></path><path d="M0 241L12.5 218.2C25 195.3 50 149.7 75 128C100 106.3 125 108.7 150 109.2C175 109.7 200 108.3 225 117.7C250 127 275 147 300 152.2C325 157.3 350 147.7 375 132.8C400 118 425 98 437.5 88L450 78L450 301L437.5 301C425 301 400 301 375 301C350 301 325 301 300 301C275 301 250 301 225 301C200 301 175 301 150 301C125 301 100 301 75 301C50 301 25 301 12.5 301L0 301Z" fill="#ceb6ad"></path><path d="M0 182L12.5 185.2C25 188.3 50 194.7 75 195C100 195.3 125 189.7 150 193.5C175 197.3 200 210.7 225 217.3C250 224 275 224 300 226.5C325 229 350 234 375 228.5C400 223 425 207 437.5 199L450 191L450 301L437.5 301C425 301 400 301 375 301C350 301 325 301 300 301C275 301 250 301 225 301C200 301 175 301 150 301C125 301 100 301 75 301C50 301 25 301 12.5 301L0 301Z" fill="#9c7b7d"></path><path d="M0 163L12.5 179C25 195 50 227 75 241.5C100 256 125 253 150 238C175 223 200 196 225 195C250 194 275 219 300 231.5C325 244 350 244 375 245.3C400 246.7 425 249.3 437.5 250.7L450 252L450 301L437.5 301C425 301 400 301 375 301C350 301 325 301 300 301C275 301 250 301 225 301C200 301 175 301 150 301C125 301 100 301 75 301C50 301 25 301 12.5 301L0 301Z" fill="#654657"></path><path d="M0 264L12.5 259.2C25 254.3 50 244.7 75 247.3C100 250 125 265 150 261C175 257 200 234 225 233.7C250 233.3 275 255.7 300 257.2C325 258.7 350 239.3 375 231.3C400 223.3 425 226.7 437.5 228.3L450 230L450 301L437.5 301C425 301 400 301 375 301C350 301 325 301 300 301C275 301 250 301 225 301C200 301 175 301 150 301C125 301 100 301 75 301C50 301 25 301 12.5 301L0 301Z" fill="#2a1b35"></path></svg>