<svg id="visual" viewBox="0 0 1400 100" width="1400" height="100" xmlns="http://www.w3.org/2000/svg" xmlns:xlink="http://www.w3.org/1999/xlink" version="1.1"><rect x="0" y="0" width="1400" height="100" fill="#FFF4E7"></rect><path d="M0 18L21.2 20C42.3 22 84.7 26 127.2 28.8C169.7 31.7 212.3 33.3 254.8 38C297.3 42.7 339.7 50.3 382 46.5C424.3 42.7 466.7 27.3 509 23.7C551.3 20 593.7 28 636.2 31.3C678.7 34.7 721.3 33.3 763.8 36.7C806.3 40 848.7 48 891 47.2C933.3 46.3 975.7 36.7 1018 34.2C1060.3 31.7 1102.7 36.3 1145.2 39.7C1187.7 43 1230.3 45 1272.8 43.2C1315.3 41.3 1357.7 35.7 1378.8 32.8L1400 30L1400 101L1378.8 101C1357.7 101 1315.3 101 1272.8 101C1230.3 101 1187.7 101 1145.2 101C1102.7 101 1060.3 101 1018 101C975.7 101 933.3 101 891 101C848.7 101 806.3 101 763.8 101C721.3 101 678.7 101 636.2 101C593.7 101 551.3 101 509 101C466.7 101 424.3 101 382 101C339.7 101 297.3 101 254.8 101C212.3 101 169.7 101 127.2 101C84.7 101 42.3 101 21.2 101L0 101Z" fill="#fff4e7"></path><path d="M0 43L21.2 47.2C42.3 51.3 84.7 59.7 127.2 61.7C169.7 63.7 212.3 59.3 254.8 61C297.3 62.7 339.7 70.3 382 70.7C424.3 71 466.7 64 509 58.5C551.3 53 593.7 49 636.2 50C678.7 51 721.3 57 763.8 61.2C806.3 65.3 848.7 67.7 891 62.2C933.3 56.7 975.7 43.3 1018 42.3C1060.3 41.3 1102.7 52.7 1145.2 56.5C1187.7 60.3 1230.3 56.7 1272.8 54.2C1315.3 51.7 1357.7 50.3 1378.8 49.7L1400 49L1400 101L1378.8 101C1357.7 101 1315.3 101 1272.8 101C1230.3 101 1187.7 101 1145.2 101C1102.7 101 1060.3 101 1018 101C975.7 101 933.3 101 891 101C848.7 101 806.3 101 763.8 101C721.3 101 678.7 101 636.2 101C593.7 101 551.3 101 509 101C466.7 101 424.3 101 382 101C339.7 101 297.3 101 254.8 101C212.3 101 169.7 101 127.2 101C84.7 101 42.3 101 21.2 101L0 101Z" fill="#ceb6ad"></path><path d="M0 72L21.2 69.3C42.3 66.7 84.7 61.3 127.2 61.7C169.7 62 212.3 68 254.8 66.3C297.3 64.7 339.7 55.3 382 56C424.3 56.7 466.7 67.3 509 68.5C551.3 69.7 593.7 61.3 636.2 55.2C678.7 49 721.3 45 763.8 46.5C806.3 48 848.7 55 891 57.2C933.3 59.3 975.7 56.7 1018 53C1060.3 49.3 1102.7 44.7 1145.2 49C1187.7 53.3 1230.3 66.7 1272.8 70C1315.3 73.3 1357.7 66.7 1378.8 63.3L1400 60L1400 101L1378.8 101C1357.7 101 1315.3 101 1272.8 101C1230.3 101 1187.7 101 1145.2 101C1102.7 101 1060.3 101 1018 101C975.7 101 933.3 101 891 101C848.7 101 806.3 101 763.8 101C721.3 101 678.7 101 636.2 101C593.7 101 551.3 101 509 101C466.7 101 424.3 101 382 101C339.7 101 297.3 101 254.8 101C212.3 101 169.7 101 127.2 101C84.7 101 42.3 101 21.2 101L0 101Z" fill="#9c7b7d"></path><path d="M0 65L21.2 69.2C42.3 73.3 84.7 81.7 127.2 81.2C169.7 80.7 212.3 71.3 254.8 69.2C297.3 67 339.7 72 382 76.7C424.3 81.3 466.7 85.7 509 82.3C551.3 79 593.7 68 636.2 62.2C678.7 56.3 721.3 55.7 763.8 57C806.3 58.3 848.7 61.7 891 65.2C933.3 68.7 975.7 72.3 1018 76.3C1060.3 80.3 1102.7 84.7 1145.2 87.2C1187.7 89.7 1230.3 90.3 1272.8 88.7C1315.3 87 1357.7 83 1378.8 81L1400 79L1400 101L1378.8 101C1357.7 101 1315.3 101 1272.8 101C1230.3 101 1187.7 101 1145.2 101C1102.7 101 1060.3 101 1018 101C975.7 101 933.3 101 891 101C848.7 101 806.3 101 763.8 101C721.3 101 678.7 101 636.2 101C593.7 101 551.3 101 509 101C466.7 101 424.3 101 382 101C339.7 101 297.3 101 254.8 101C212.3 101 169.7 101 127.2 101C84.7 101 42.3 101 21.2 101L0 101Z" fill="#654657"></path><path d="M0 72L21.2 75.7C42.3 79.3 84.7 86.7 127.2 90C169.7 93.3 212.3 92.7 254.8 89C297.3 85.3 339.7 78.7 382 75C424.3 71.3 466.7 70.7 509 72.2C551.3 73.7 593.7 77.3 636.2 78C678.7 78.7 721.3 76.3 763.8 76C806.3 75.7 848.7 77.3 891 76.7C933.3 76 975.7 73 1018 71.5C1060.3 70 1102.7 70 1145.2 71.7C1187.7 73.3 1230.3 76.7 1272.8 77.5C1315.3 78.3 1357.7 76.7 1378.8 75.8L1400 75L1400 101L1378.8 101C1357.7 101 1315.3 101 1272.8 101C1230.3 101 1187.7 101 1145.2 101C1102.7 101 1060.3 101 1018 101C975.7 101 933.3 101 891 101C848.7 101 806.3 101 763.8 101C721.3 101 678.7 101 636.2 101C593.7 101 551.3 101 509 101C466.7 101 424.3 101 382 101C339.7 101 297.3 101 254.8 101C212.3 101 169.7 101 127.2 101C84.7 101 42.3 101 21.2 101L0 101Z" fill="#2a1b35"></path></svg>