<svg id="visual" style="display: block;" viewBox="0 0 1400 300" xmlns="http://www.w3.org/2000/svg" xmlns:xlink="http://www.w3.org/1999/xlink" version="1.1"><rect x="0" y="0" width="1400" height="300" fill="#FFF4E7"></rect><path d="M0 55L21.2 61.3C42.3 67.7 84.7 80.3 127.2 89C169.7 97.7 212.3 102.3 254.8 116C297.3 129.7 339.7 152.3 382 140.7C424.3 129 466.7 83 509 72C551.3 61 593.7 85 636.2 95.2C678.7 105.3 721.3 101.7 763.8 111.7C806.3 121.7 848.7 145.3 891 143C933.3 140.7 975.7 112.3 1018 105C1060.3 97.7 1102.7 111.3 1145.2 121.2C1187.7 131 1230.3 137 1272.8 131.5C1315.3 126 1357.7 109 1378.8 100.5L1400 92L1400 301L1378.8 301C1357.7 301 1315.3 301 1272.8 301C1230.3 301 1187.7 301 1145.2 301C1102.7 301 1060.3 301 1018 301C975.7 301 933.3 301 891 301C848.7 301 806.3 301 763.8 301C721.3 301 678.7 301 636.2 301C593.7 301 551.3 301 509 301C466.7 301 424.3 301 382 301C339.7 301 297.3 301 254.8 301C212.3 301 169.7 301 127.2 301C84.7 301 42.3 301 21.2 301L0 301Z" fill="#fff4e7"></path><path d="M0 131L21.2 143.7C42.3 156.3 84.7 181.7 127.2 187.8C169.7 194 212.3 181 254.8 185.7C297.3 190.3 339.7 212.7 382 213.5C424.3 214.3 466.7 193.7 509 177.3C551.3 161 593.7 149 636.2 152C678.7 155 721.3 173 763.8 185.3C806.3 197.7 848.7 204.3 891 188C933.3 171.7 975.7 132.3 1018 129.7C1060.3 127 1102.7 161 1145.2 172.2C1187.7 183.3 1230.3 171.7 1272.8 164.2C1315.3 156.7 1357.7 153.3 1378.8 151.7L1400 150L1400 301L1378.8 301C1357.7 301 1315.3 301 1272.8 301C1230.3 301 1187.7 301 1145.2 301C1102.7 301 1060.3 301 1018 301C975.7 301 933.3 301 891 301C848.7 301 806.3 301 763.8 301C721.3 301 678.7 301 636.2 301C593.7 301 551.3 301 509 301C466.7 301 424.3 301 382 301C339.7 301 297.3 301 254.8 301C212.3 301 169.7 301 127.2 301C84.7 301 42.3 301 21.2 301L0 301Z" fill="#ceb6ad"></path><path d="M0 218L21.2 209.8C42.3 201.7 84.7 185.3 127.2 186.3C169.7 187.3 212.3 205.7 254.8 200.7C297.3 195.7 339.7 167.3 382 169.2C424.3 171 466.7 203 509 206.8C551.3 210.7 593.7 186.3 636.2 168.2C678.7 150 721.3 138 763.8 142.3C806.3 146.7 848.7 167.3 891 173.7C933.3 180 975.7 172 1018 161C1060.3 150 1102.7 136 1145.2 148.8C1187.7 161.7 1230.3 201.3 1272.8 211.2C1315.3 221 1357.7 201 1378.8 191L1400 181L1400 301L1378.8 301C1357.7 301 1315.3 301 1272.8 301C1230.3 301 1187.7 301 1145.2 301C1102.7 301 1060.3 301 1018 301C975.7 301 933.3 301 891 301C848.7 301 806.3 301 763.8 301C721.3 301 678.7 301 636.2 301C593.7 301 551.3 301 509 301C466.7 301 424.3 301 382 301C339.7 301 297.3 301 254.8 301C212.3 301 169.7 301 127.2 301C84.7 301 42.3 301 21.2 301L0 301Z" fill="#9c7b7d"></path><path d="M0 198L21.2 210.5C42.3 223 84.7 248 127.2 246.3C169.7 244.7 212.3 216.3 254.8 209.5C297.3 202.7 339.7 217.3 382 231.3C424.3 245.3 466.7 258.7 509 249C551.3 239.3 593.7 206.7 636.2 189C678.7 171.3 721.3 168.7 763.8 172.5C806.3 176.3 848.7 186.7 891 197.5C933.3 208.3 975.7 219.7 1018 231.7C1060.3 243.7 1102.7 256.3 1145.2 263.5C1187.7 270.7 1230.3 272.3 1272.8 267.2C1315.3 262 1357.7 250 1378.8 244L1400 238L1400 301L1378.8 301C1357.7 301 1315.3 301 1272.8 301C1230.3 301 1187.7 301 1145.2 301C1102.7 301 1060.3 301 1018 301C975.7 301 933.3 301 891 301C848.7 301 806.3 301 763.8 301C721.3 301 678.7 301 636.2 301C593.7 301 551.3 301 509 301C466.7 301 424.3 301 382 301C339.7 301 297.3 301 254.8 301C212.3 301 169.7 301 127.2 301C84.7 301 42.3 301 21.2 301L0 301Z" fill="#654657"></path><path d="M0 217L21.2 228.2C42.3 239.3 84.7 261.7 127.2 272C169.7 282.3 212.3 280.7 254.8 269.5C297.3 258.3 339.7 237.7 382 226.7C424.3 215.7 466.7 214.3 509 219C551.3 223.7 593.7 234.3 636.2 236.2C678.7 238 721.3 231 763.8 229.8C806.3 228.7 848.7 233.3 891 231.5C933.3 229.7 975.7 221.3 1018 217C1060.3 212.7 1102.7 212.3 1145.2 217C1187.7 221.7 1230.3 231.3 1272.8 234C1315.3 236.7 1357.7 232.3 1378.8 230.2L1400 228L1400 301L1378.8 301C1357.7 301 1315.3 301 1272.8 301C1230.3 301 1187.7 301 1145.2 301C1102.7 301 1060.3 301 1018 301C975.7 301 933.3 301 891 301C848.7 301 806.3 301 763.8 301C721.3 301 678.7 301 636.2 301C593.7 301 551.3 301 509 301C466.7 301 424.3 301 382 301C339.7 301 297.3 301 254.8 301C212.3 301 169.7 301 127.2 301C84.7 301 42.3 301 21.2 301L0 301Z" fill="#2a1b35"></path></svg>