<svg id="visual" viewBox="0 0 1920 1080" width="1920" height="1080" xmlns="http://www.w3.org/2000/svg" xmlns:xlink="http://www.w3.org/1999/xlink" version="1.1"><path d="M0 702L17.8 683.7C35.7 665.3 71.3 628.7 106.8 625.8C142.3 623 177.7 654 213.2 667.7C248.7 681.3 284.3 677.7 320 660.5C355.7 643.3 391.3 612.7 426.8 598.2C462.3 583.7 497.7 585.3 533.2 607.7C568.7 630 604.3 673 640 684.5C675.7 696 711.3 676 746.8 667.5C782.3 659 817.7 662 853.2 652.8C888.7 643.7 924.3 622.3 960 615.3C995.7 608.3 1031.3 615.7 1066.8 621.7C1102.3 627.7 1137.7 632.3 1173.2 637.7C1208.7 643 1244.3 649 1280 638.8C1315.7 628.7 1351.3 602.3 1386.8 599C1422.3 595.7 1457.7 615.3 1493.2 626.2C1528.7 637 1564.3 639 1600 644.7C1635.7 650.3 1671.3 659.7 1706.8 661.3C1742.3 663 1777.7 657 1813.2 656.3C1848.7 655.7 1884.3 660.3 1902.2 662.7L1920 665L1920 1081L1902.2 1081C1884.3 1081 1848.7 1081 1813.2 1081C1777.7 1081 1742.3 1081 1706.8 1081C1671.3 1081 1635.7 1081 1600 1081C1564.3 1081 1528.7 1081 1493.2 1081C1457.7 1081 1422.3 1081 1386.8 1081C1351.3 1081 1315.7 1081 1280 1081C1244.3 1081 1208.7 1081 1173.2 1081C1137.7 1081 1102.3 1081 1066.8 1081C1031.3 1081 995.7 1081 960 1081C924.3 1081 888.7 1081 853.2 1081C817.7 1081 782.3 1081 746.8 1081C711.3 1081 675.7 1081 640 1081C604.3 1081 568.7 1081 533.2 1081C497.7 1081 462.3 1081 426.8 1081C391.3 1081 355.7 1081 320 1081C284.3 1081 248.7 1081 213.2 1081C177.7 1081 142.3 1081 106.8 1081C71.3 1081 35.7 1081 17.8 1081L0 1081Z" fill="#2A1B35" stroke-linecap="round" stroke-linejoin="miter"></path></svg>